# xmcd
#
# Track frame offsets:
#	150
#	25917
#	45908
#	59980
#	81323
#	101097
#	121449
#	145843
#	160904
#	179627
#	195629
#	216662
#	241676
#
# Disc length: 3650 seconds
#
# Revision: 1
# Processed by: cddbd v1.5.2PL0 Copyright (c) Steve Scherf et al.
# Submitted via: audiograbber 1.83.01
#
DISCID=c10e400d
DTITLE=Pete Thomas - Midnight in the Naked City
DYEAR=2011
DGENRE=Blues
TTITLE0=Another Night in the Naked City p2
TTITLE1=Imperial Blues
TTITLE2=Big Girls' Blues
TTITLE3=Love Them
TTITLE4=Lowdown
TTITLE5=Another Kind of Blue
TTITLE6=Slow River
TTITLE7=Slinky
TTITLE8=Coco de Mer
TTITLE9=Mystery Man
TTITLE10=Shed Full of Blues
TTITLE11=Harlem Nocturne
TTITLE12=Night Train
EXTD=
EXTT0=
EXTT1=
EXTT2=
EXTT3=
EXTT4=
EXTT5=
EXTT6=
EXTT7=
EXTT8=
EXTT9=
EXTT10=
EXTT11=
EXTT12=
PLAYORDER=
